<svg width="382" height="787" viewBox="0 0 382 787" fill="none" xmlns="http://www.w3.org/2000/svg">
<path d="M28.6678 613.5C-53.3322 446.7 235.834 194.667 390.668 89.5V782.5C304.168 795.667 110.668 780.3 28.6678 613.5Z" fill="#BEC6A9"/>
<path fill-rule="evenodd" clip-rule="evenodd" d="M416.148 3.33724L416.345 0.548828L413.913 1.92588C332.394 48.0708 214.364 128.11 125.209 218.29C80.6336 263.378 43.2089 311.067 21.2001 358.385C-0.813833 405.715 -7.46249 452.811 9.77244 496.55C12.2716 502.892 14.9432 509.085 17.7755 515.131C18.0932 513.48 18.4319 511.825 18.7914 510.167C16.6111 505.354 14.5332 500.449 12.5636 495.45C-4.2712 452.726 2.12 406.52 23.9202 359.651C45.7256 312.77 82.8894 265.363 127.342 220.4C215.36 131.37 331.689 52.182 412.958 5.91776L390.668 320.596V363.056L416.148 3.33724Z" fill="#6A7564" fill-opacity="0.5"/>
</svg>
