<svg width="1057" height="1066" viewBox="0 0 1057 1066" fill="none" xmlns="http://www.w3.org/2000/svg">
<path d="M1054.78 742.816C1081.06 547.652 825.845 467.62 694.954 452C729.462 459.054 747.215 527.094 542.169 742.816C337.124 958.538 573.345 1047.71 717.087 1065.33C818.705 1039.15 1028.51 937.98 1054.78 742.816Z" fill="#6A7564"/>
<path d="M54.3087 394.405C11.6421 186.938 221.42 77.7379 331.642 49.0712C749.775 14.9379 854.309 352.627 854.309 525.738C842.531 671.516 751.375 955.338 480.975 924.405C142.975 885.738 107.642 653.738 54.3087 394.405Z" fill="#AAB492"/>
<path d="M9.07628 358.03C-34.3508 146.809 179.166 35.6331 291.352 6.44774C716.937 -28.3032 823.333 315.496 823.333 491.74C811.346 640.155 718.566 929.113 443.347 897.62C99.3231 858.254 63.3601 622.056 9.07628 358.03Z" stroke="#6A7564" stroke-width="6.66667"/>
</svg>
